<?xml version="1.0" encoding="iso-8859-1"?>
<svg version="1.1" id="Capa_1" xmlns="http://www.w3.org/2000/svg" xmlns:xlink="http://www.w3.org/1999/xlink" x="0px" y="0px"
	 viewBox="0 0 216.294 216.294" style="enable-background:new 0 0 216.294 216.294;" xml:space="preserve">
<g>
	<g id="group-158svg">
		<path id="path-1_65_" style="fill:#FF3A2F;" d="M94.929,192.572h15.769c3.04,0,5.505,1.546,5.505,3.454
			c0,1.909-2.465,3.457-5.505,3.457h-0.734c-3.04,0-5.505,1.546-5.505,3.455c0,1.907,2.465,3.455,5.505,3.455h33.899
			c3.04,0,5.504,1.547,5.504,3.455c0,1.908-2.464,3.454-5.504,3.454h-40.738H58.352c-3.041,0-5.505-1.546-5.505-3.454
			c0-1.908,2.464-3.455,5.505-3.455h9.408c3.04,0,5.504-1.548,5.504-3.455c0-1.909-2.464-3.455-5.504-3.455H22.985
			c-3.04,0-5.505-1.548-5.505-3.457c0-1.908,2.465-3.454,5.505-3.454h10.582H94.929z"/>
		<path id="path-2_65_" style="fill:#FF3A2F;" d="M192.529,216.294c3.471,0,6.286-1.768,6.286-3.946c0-2.18-2.815-3.947-6.286-3.947
			h-19.262c-3.471,0-6.285,1.767-6.285,3.947c0,2.178,2.814,3.946,6.285,3.946H192.529z"/>
		<path id="path-3_65_" style="fill:#142A3B;" d="M147.342,0.002c4.452,0,12.329,0.139,18.317,0.139
			c3.764,0,4.456,3.383,4.456,3.383s0,39.681,0,51.868c0,6.906,2.061,7.853,3.597,8.941c2.031,1.427,7.545,2.964,10.092,4.058
			c7.883,3.392,7.027,11.515,7.027,11.515s-0.056,105.041-0.056,124.543c0,4.605-2.178,6.55-5.944,6.55
			c-17.114,0-37.096-0.139-53.316-0.139c-3.939,0-8.139-0.27-8.139-5.685c0-24.107,0-125.669,0-125.669s0.108-7.992,7.706-11.378
			c6.675-2.987,6.001-2.439,8.899-4.203c3.172-1.919,3.255-3.112,3.255-8.397c0-30.89-0.17-48.748-0.17-52.004
			C143.066,1.628,145.678,0.002,147.342,0.002z"/>
		<path id="path-4_65_" style="opacity:0.35;fill:#020403;enable-background:new    ;" d="M183.805,68.391
			c-2.547-1.094-8.061-2.631-10.093-4.058c-1.535-1.088-3.596-2.035-3.596-8.941c0-12.189,0-51.868,0-51.868
			s-0.692-3.383-4.456-3.383C159.671,0.141,151.796,0,147.342,0c-1.665,0-4.276,1.628-4.276,3.524c0,0.096,0,0.248,0,0.371
			c3.628,0.037,7.597,0.083,10.976,0.083c3.764,0,4.455,3.383,4.455,3.383s0,39.679,0,51.866c0,6.908,2.061,7.855,3.597,8.941
			c2.031,1.429,7.546,2.964,10.093,4.06c7.883,3.392,7.026,11.515,7.026,11.515s-0.056,105.039-0.056,124.541
			c0,1.043-0.126,1.932-0.342,2.709c2.033,0.004,4.047,0.006,6.016,0.006c3.766,0,5.944-1.945,5.944-6.55
			c0-19.502,0.056-124.543,0.056-124.543S191.688,71.783,183.805,68.391z"/>
		<path id="path-5_65_" style="fill:#FBB713;" d="M169.781,22.23h-26.026v-7.21h26.026V22.23z"/>
		<path id="path-6_64_" style="fill:#FBB713;" d="M182.154,163.907c0,1.47-1.161,2.657-2.571,2.657h-44.345
			c-1.412,0-2.555-1.187-2.555-2.657v-58.395c0-1.465,1.143-2.654,2.555-2.654h44.345c1.41,0,2.571,1.189,2.571,2.654V163.907z"/>
		<path id="path-7_64_" style="fill:#FFFFFF;" d="M132.684,98.675c-2.009,0-3.639-1.615-3.639-3.605
			c0-18.926,12.495-26.186,19.103-27.384c1.972-0.343,3.873,0.942,4.233,2.899c0.36,1.95-0.938,3.821-2.902,4.189
			c-0.601,0.119-13.156,2.85-13.156,20.296C136.323,97.06,134.693,98.675,132.684,98.675z"/>
	</g>
</g>
<g>
</g>
<g>
</g>
<g>
</g>
<g>
</g>
<g>
</g>
<g>
</g>
<g>
</g>
<g>
</g>
<g>
</g>
<g>
</g>
<g>
</g>
<g>
</g>
<g>
</g>
<g>
</g>
<g>
</g>
</svg>
